# ProBuilder 5.1.1
# https://unity3d.com/unity/features/worldbuilding/probuilder
# 11/14/2023 10:41:03 AM

mtllib ./Stage_v1.mtl
o Stage_v1

g Cube(Clone)
v 1.240712 0 9.930984
v 8.593422 0 9.930984
v 1.240712 0.9772263 9.930984
v 8.593422 0.9772263 9.930984
v 9.593422 0 8.930984
v 9.593422 0 0.06212214
v 9.593422 0.9772263 8.930984
v 9.593422 0.9772263 0.06212214
v 1.240712 0 8.930984
v 8.593422 0 5.930984
v 1.240712 0.9772263 8.930984
v 9.593422 0 9.930984
v 9.593422 0.9772263 9.930984
v 8.593422 9.477226 5.930984
v 1.240712 9.477226 8.930984
v 8.593422 9.477226 9.930984
v 1.240712 9.477226 9.930984
v 9.593422 9.477226 8.930984
v 9.593422 9.477226 9.930984
v 8.593422 0 0.06212214
v 8.593422 9.477226 0.06212214
v 9.593422 9.477226 0.06212214
v 1.240712 8.477226 8.930984
v 1.240712 8.477226 9.930984
v 9.593422 8.477226 8.930984
v 9.593422 8.477226 0.06212214
v 8.593422 8.477226 9.930984
v 9.593422 8.477226 9.930984
v 8.593422 0.9772263 8.930984
v 8.593422 8.477226 8.930984
v 8.593422 0.9772263 0.06212214
v 8.593422 8.477226 0.06212214
v 8.593422 8.477226 7.680984
v 1.240712 8.477226 7.680984
v 1.240712 9.477226 0.0565792
v 8.593422 9.477226 0.0565792
v 1.240712 8.977226 3.678865
v 8.593422 8.977226 3.678865
v 1.240712 9.227226 2.711309
v 8.593422 9.227226 2.711309
v 1.240712 0 -10.06288
v 8.593422 0 -10.06288
v 1.240712 0.9772263 -10.06288
v 8.593422 0.9772263 -10.06288
v 9.593422 0 -9.062878
v 9.593422 0 0.05598429
v 9.593422 0.9772263 -9.062878
v 9.593422 0.9772263 0.05598429
v 1.240712 0 -9.062878
v 8.593422 0 -5.812878
v 1.240712 0.9772263 -9.062878
v 9.593422 0 -10.06288
v 9.593422 0.9772263 -10.06288
v 8.593422 9.477226 -5.812878
v 1.240712 9.477226 -9.062878
v 8.593422 9.477226 -10.06288
v 1.240712 9.477226 -10.06288
v 9.593422 9.477226 -9.062878
v 9.593422 9.477226 -10.06288
v 8.593422 0 0.05598429
v 8.593422 9.477226 0.05598429
v 9.593422 9.477226 0.05598429
v 1.240712 8.477226 -9.062878
v 1.240712 8.477226 -10.06288
v 9.593422 8.477226 -9.062878
v 9.593422 8.477226 0.05598429
v 8.593422 8.477226 -10.06288
v 9.593422 8.477226 -10.06288
v 8.593422 0.9772263 -9.062878
v 8.593422 8.477226 -9.062878
v 8.593422 0.9772263 0.05598429
v 8.593422 8.477226 0.05598429
v 8.593422 8.477226 -7.812878
v 1.240712 8.477226 -7.812878
v 1.240712 9.477226 0.06152722
v 8.593422 9.477226 0.06152722
v 1.240712 8.977226 -3.560759
v 8.593422 8.977226 -3.560759
v 1.240712 9.227226 -2.593202
v 8.593422 9.227226 -2.593202
v 1.240712 0.9772263 4.496553
v 1.240712 0 4.496553
v 1.240712 0 -4.503447
v 1.240712 0.9772263 -4.503447
v 0.4597039 0 2.248276
v 0.406776 0.9772263 2.277803
v 0 0 0
v -0.1058555 0.9772263 0.05905321
v 0.4597039 0 -2.251724
v 0.406776 0.9772263 -2.222197

vt 1.240712 0
vt 8.593422 0
vt 1.240712 0.9772263
vt 8.593422 0.9772263
vt -8.930984 0
vt -0.06212214 0
vt -8.930984 0.9772263
vt -0.06212214 0.9772263
vt 1.240712 8.930984
vt 8.593422 5.930984
vt 1.240712 9.930984
vt 8.593422 9.930984
vt 8.930984 0.9772263
vt 8.930984 0
vt 9.930984 0.9772263
vt 9.930984 0
vt -9.930984 0
vt -9.930984 0.9772263
vt -8.593422 5.930984
vt -1.240712 8.930984
vt -8.593422 9.930984
vt -1.240712 9.930984
vt 9.593422 9.930984
vt 9.593422 8.930984
vt -9.593422 8.930984
vt -9.593422 9.930984
vt 9.593422 0.9772263
vt 9.593422 0
vt 8.593422 0.06212214
vt 9.593422 0.06212214
vt -8.593422 0.06212214
vt -9.593422 0.06212214
vt 8.930984 8.477226
vt 9.930984 8.477226
vt -8.930984 8.477226
vt -0.06212214 8.477226
vt 8.593422 8.477226
vt 9.593422 8.477226
vt -9.930984 8.477226
vt -8.593422 0.9772263
vt -1.240712 0.9772263
vt -8.593422 8.477226
vt -1.240712 8.477226
vt 1.240712 8.477226
vt 0.06212214 0.9772263
vt 0.06212214 8.477226
vt 8.930984 9.477226
vt 9.930984 9.477226
vt -8.930984 9.477226
vt -0.06212214 9.477226
vt 8.593422 9.477226
vt 9.593422 9.477226
vt -9.930984 9.477226
vt 1.240712 9.477226
vt 0.06212214 9.477226
vt 5.930984 9.477226
vt 8.593422 8.930984
vt 8.593422 7.680984
vt 1.240712 7.680984
vt -1.240712 0.0565792
vt -8.593422 0.0565792
vt 8.593422 6.261249
vt 1.240712 6.261249
vt 1.240712 2.230172
vt 8.593422 2.230172
vt 1.240712 1.235428
vt 8.593422 1.235428
vt 1.240712 -1.425743
vt 8.593422 -1.425743
vt -3.678865 8.977226
vt -2.711309 9.227226
vt -0.0565792 9.477226
vt -5.930984 9.477226
vt -7.680984 8.477226
vt 7.680984 8.477226
vt 0.05657912 9.477226
vt 2.711309 9.227226
vt 3.678865 8.977226
vt -1.240712 0
vt -8.593422 0
vt 9.437878 0
vt 0.3190157 0
vt 9.437878 0.9772263
vt 0.3190157 0.9772263
vt 1.240712 -9.437878
vt 8.593422 -6.187878
vt 1.240712 -10.43788
vt 8.593422 -10.43788
vt -9.437878 0.9772263
vt -9.437878 0
vt -10.43788 0.9772263
vt -10.43788 0
vt 10.43788 0
vt 10.43788 0.9772263
vt -8.593422 -6.187878
vt -1.240712 -9.437878
vt -8.593422 -10.43788
vt -1.240712 -10.43788
vt 9.593422 -10.43788
vt 9.593422 -9.437878
vt -9.593422 -9.437878
vt -9.593422 -10.43788
vt -9.593422 0.9772263
vt -9.593422 0
vt 8.593422 -0.3190157
vt 9.593422 -0.3190157
vt -8.593422 -0.3190157
vt -9.593422 -0.3190157
vt -9.437878 8.477226
vt -10.43788 8.477226
vt 9.437878 8.477226
vt 0.3190157 8.477226
vt -9.593422 8.477226
vt 10.43788 8.477226
vt -0.3190157 0.9772263
vt -0.3190157 8.477226
vt -9.437878 9.477226
vt -10.43788 9.477226
vt 9.437878 9.477226
vt 0.3190157 9.477226
vt -8.593422 9.477226
vt -9.593422 9.477226
vt 10.43788 9.477226
vt -1.240712 9.477226
vt -0.3190157 9.477226
vt -6.187878 9.477226
vt 8.593422 -9.437878
vt 8.593422 -8.187878
vt 1.240712 -8.187878
vt -1.240712 -0.3134728
vt -8.593422 -0.3134728
vt 8.593422 -10.28239
vt 1.240712 -10.28239
vt 1.240712 -6.451355
vt 8.593422 -6.451355
vt 8.593422 -3.525202
vt 1.240712 -3.525202
vt 1.240712 -2.557645
vt 8.593422 -2.557645
vt 1.238109 -2.581923
vt 1.241903 0.08326834
vt 8.598376 0.07279593
vt 8.594583 -2.592395
vt 3.935759 8.977226
vt 2.968202 9.227226
vt 0.3134728 9.477226
vt 6.187878 9.477226
vt 8.187878 8.477226
vt -8.187878 8.477226
vt -0.3134728 9.477226
vt -2.968202 9.227226
vt -3.935759 8.977226
vt 4.651976 0.9701573
vt 9.00178 0.987445
vt 9.00178 0.01041519
vt 4.651976 -0.006872518
vt -5.029859 -0.01211657
vt -9.511417 0.01390162
vt -9.511417 0.9906579
vt -5.029859 0.9646397
vt 2.294751 -0.0002765445
vt 2.313424 0.9779093
vt 0 0
vt 0.03734446 0.979342
vt 0.1058555 0.05905321
vt -8.593422 8.930984
vt -1.240712 4.496553
vt -0.406776 2.277803
vt 1.240712 4.496553
vt 0.4597039 2.248276
vt -0.375 0
vt -2.672865 -0.001161816
vt -2.634102 0.9770392
vt -0.2974748 0.9796457
vt -1.240712 -4.878447
vt -8.593422 -9.437878
vt 0.1058555 -0.3159468
vt -0.406776 -2.597197
vt 1.240712 -4.878447
vt 0.4597039 -2.626724
vt 0 -0.375

vn 0 0 1
vn 1 0 0
vn 0 -1 0
vn -1 0 0
vn 0 1 0
vn 0 0 -1
vn 0 -0.992286 -0.1239701
vn 0 -0.9682027 -0.2501669
vn 0 -0.9955952 -0.09375674
vn 0 -0.9931574 0.1167838
vn 0 -0.9682027 0.2501669
vn 0 -0.9955952 0.09375674
vn -0.9394675 -0.0304818 0.3396814
vn -0.9428703 -0.0609636 0.3275349
vn -0.9360648 0 0.3518278
vn -0.9727803 -0.08844095 0.2118277
vn -0.9729527 -0.1174143 0.1989391
vn -0.972608 -0.0594676 0.2247164
vn -0.9751178 -0.06950821 -0.2090633
vn -0.9787083 -0.04697103 -0.1998096
vn -0.9715273 -0.09204538 -0.2183169
vn -0.9416126 -0.02023097 -0.3353776
vn -0.9447829 0 -0.3276972
vn -0.9384423 -0.04046194 -0.343058

usemtl Lit
f 14/73/2 30/35/2 33/74/2
f 14/73/2 33/74/2 38/70/2
f 14/73/2 38/70/2 40/71/2
f 36/72/2 14/73/2 40/71/2
f 39/77/4 15/47/4 35/76/4
f 39/77/4 37/78/4 15/47/4
f 37/78/4 34/75/4 15/47/4
f 34/75/4 23/33/4 15/47/4
f 80/145/2 54/147/2 76/146/2
f 80/145/2 78/144/2 54/147/2
f 78/144/2 73/148/2 54/147/2
f 73/148/2 70/111/2 54/147/2
f 55/117/4 63/109/4 74/149/4
f 55/117/4 74/149/4 77/152/4
f 55/117/4 77/152/4 79/151/4
f 75/150/4 55/117/4 79/151/4
f 86/168/5 31/31/5 88/165/5
f 81/167/5 31/31/5 86/168/5
f 29/166/5 31/31/5 81/167/5
f 29/166/5 81/167/5 11/20/5
f 9/9/3 82/169/3 10/10/3
f 82/169/3 20/29/3 10/10/3
f 85/170/3 20/29/3 82/169/3
f 87/163/3 20/29/3 85/170/3
f 69/176/5 51/96/5 84/175/5
f 71/107/5 69/176/5 84/175/5
f 71/107/5 84/175/5 90/178/5
f 71/107/5 90/178/5 88/177/5
f 87/181/3 89/180/3 60/105/3
f 89/180/3 83/179/3 60/105/3
f 83/179/3 50/86/3 60/105/3
f 83/179/3 49/85/3 50/86/3
f 2/2/1 4/4/1 3/3/1
f 3/3/1 1/1/1 2/2/1
f 6/6/2 8/8/2 7/7/2
f 7/7/2 5/5/2 6/6/2
f 10/10/3 2/12/3 1/11/3
f 1/11/3 9/9/3 10/10/3
f 9/14/4 1/16/4 3/15/4
f 3/15/4 11/13/4 9/14/4
f 7/7/2 13/18/2 12/17/2
f 12/17/2 5/5/2 7/7/2
f 15/20/5 17/22/5 16/21/5
f 16/21/5 14/19/5 15/20/5
f 10/10/3 5/24/3 12/23/3
f 12/23/3 2/12/3 10/10/3
f 16/21/5 19/26/5 18/25/5
f 18/25/5 14/19/5 16/21/5
f 2/2/1 12/28/1 13/27/1
f 13/27/1 4/4/1 2/2/1
f 20/29/3 6/30/3 5/24/3
f 5/24/3 10/10/3 20/29/3
f 14/19/5 18/25/5 22/32/5
f 22/32/5 21/31/5 14/19/5
f 3/15/4 24/34/4 23/33/4
f 23/33/4 11/13/4 3/15/4
f 8/8/2 26/36/2 25/35/2
f 25/35/2 7/7/2 8/8/2
f 13/27/1 28/38/1 27/37/1
f 27/37/1 4/4/1 13/27/1
f 7/7/2 25/35/2 28/39/2
f 28/39/2 13/18/2 7/7/2
f 11/41/6 23/43/6 30/42/6
f 30/42/6 29/40/6 11/41/6
f 4/4/1 27/37/1 24/44/1
f 24/44/1 3/3/1 4/4/1
f 29/13/4 30/33/4 32/46/4
f 32/46/4 31/45/4 29/13/4
f 24/34/4 17/48/4 15/47/4
f 15/47/4 23/33/4 24/34/4
f 26/36/2 22/50/2 18/49/2
f 18/49/2 25/35/2 26/36/2
f 28/38/1 19/52/1 16/51/1
f 16/51/1 27/37/1 28/38/1
f 25/35/2 18/49/2 19/53/2
f 19/53/2 28/39/2 25/35/2
f 27/37/1 16/51/1 17/54/1
f 17/54/1 24/44/1 27/37/1
f 30/33/4 14/56/4 21/55/4
f 21/55/4 32/46/4 30/33/4
f 23/9/3 34/59/3 33/58/3
f 33/58/3 30/57/3 23/9/3
f 14/19/5 36/61/5 35/60/5
f 35/60/5 15/20/5 14/19/5
f 37/64/7 38/65/7 33/62/7
f 33/62/7 34/63/7 37/64/7
f 40/67/8 38/65/8 37/64/8
f 37/64/8 39/66/8 40/67/8
f 36/69/9 40/67/9 39/66/9
f 39/66/9 35/68/9 36/69/9
f 44/40/6 42/80/6 41/79/6
f 41/79/6 43/41/6 44/40/6
f 48/84/2 46/82/2 45/81/2
f 45/81/2 47/83/2 48/84/2
f 42/88/3 50/86/3 49/85/3
f 49/85/3 41/87/3 42/88/3
f 41/92/4 49/90/4 51/89/4
f 51/89/4 43/91/4 41/92/4
f 53/94/2 47/83/2 45/81/2
f 45/81/2 52/93/2 53/94/2
f 57/98/5 55/96/5 54/95/5
f 54/95/5 56/97/5 57/98/5
f 45/100/3 50/86/3 42/88/3
f 42/88/3 52/99/3 45/100/3
f 59/102/5 56/97/5 54/95/5
f 54/95/5 58/101/5 59/102/5
f 52/104/6 42/80/6 44/40/6
f 44/40/6 53/103/6 52/104/6
f 46/106/3 60/105/3 50/86/3
f 50/86/3 45/100/3 46/106/3
f 58/101/5 54/95/5 61/107/5
f 61/107/5 62/108/5 58/101/5
f 64/110/4 43/91/4 51/89/4
f 51/89/4 63/109/4 64/110/4
f 66/112/2 48/84/2 47/83/2
f 47/83/2 65/111/2 66/112/2
f 68/113/6 53/103/6 44/40/6
f 44/40/6 67/42/6 68/113/6
f 65/111/2 47/83/2 53/94/2
f 53/94/2 68/114/2 65/111/2
f 63/44/1 51/3/1 69/4/1
f 69/4/1 70/37/1 63/44/1
f 67/42/6 44/40/6 43/41/6
f 43/41/6 64/43/6 67/42/6
f 70/109/4 69/89/4 71/115/4
f 71/115/4 72/116/4 70/109/4
f 57/118/4 64/110/4 63/109/4
f 63/109/4 55/117/4 57/118/4
f 62/120/2 66/112/2 65/111/2
f 65/111/2 58/119/2 62/120/2
f 59/122/6 68/113/6 67/42/6
f 67/42/6 56/121/6 59/122/6
f 58/119/2 65/111/2 68/114/2
f 68/114/2 59/123/2 58/119/2
f 56/121/6 67/42/6 64/43/6
f 64/43/6 57/124/6 56/121/6
f 54/126/4 70/109/4 72/116/4
f 72/116/4 61/125/4 54/126/4
f 74/129/3 63/85/3 70/127/3
f 70/127/3 73/128/3 74/129/3
f 76/131/5 54/95/5 55/96/5
f 55/96/5 75/130/5 76/131/5
f 77/134/10 74/133/10 73/132/10
f 73/132/10 78/135/10 77/134/10
f 78/136/11 80/139/11 79/138/11
f 79/138/11 77/137/11 78/136/11
f 76/142/12 75/141/12 79/140/12
f 79/140/12 80/143/12 76/142/12
f 81/153/4 82/156/4 9/155/4
f 9/155/4 11/154/4 81/153/4
f 51/159/4 49/158/4 83/157/4
f 83/157/4 84/160/4 51/159/4
f 82/156/13 81/153/15 86/162/13
f 86/162/13 85/161/14 82/156/13
f 87/163/17 85/161/16 86/162/18
f 86/162/18 88/164/16 87/163/17
f 89/172/20 87/171/19 88/174/21
f 88/174/21 90/173/19 89/172/20
f 84/160/22 83/157/23 89/172/22
f 89/172/22 90/173/24 84/160/22

